<?xml version="1.0" encoding="utf-8"?>
<!-- Generator: Adobe Illustrator 17.0.0, SVG Export Plug-In . SVG Version: 6.00 Build 0)  -->
<!DOCTYPE svg PUBLIC "-//W3C//DTD SVG 1.1//EN" "http://www.w3.org/Graphics/SVG/1.1/DTD/svg11.dtd">
<svg version="1.1" id="Слой_1" xmlns="http://www.w3.org/2000/svg" xmlns:xlink="http://www.w3.org/1999/xlink" x="0px" y="0px"
	 width="258.6019592px" height="258.4859619px" viewBox="0 0 258.6019592 258.4859619"
	 enable-background="new 0 0 258.6019592 258.4859619" xml:space="preserve">
<g id="icon_2_">
	<g>
		<path fill-rule="evenodd" clip-rule="evenodd" fill="#B9B7B7" d="M129.1312866,75.5114746
			c-29.7794189,0-53.9223633,24.1309814-53.9223633,53.8991699c0,29.767334,24.1429443,53.8969727,53.9223633,53.8969727
			c29.7808228,0,53.9227295-24.1296387,53.9227295-53.8969727
			C183.0540161,99.6424561,158.9121094,75.5114746,129.1312866,75.5114746z M129.1312866,161.9594116
			c-17.9840088,0-32.5639038-14.5721436-32.5639038-32.5487671s14.579895-32.5509644,32.5639038-32.5509644
			c17.9857178,0,32.5653076,14.5743408,32.5653076,32.5509644S147.1170044,161.9594116,129.1312866,161.9594116z
			 M258.6019897,140.0112305v-21.5392456h-31.9485474c-2.1437988-18.9155273-9.6942139-36.1896973-21.0726318-50.2442017
			l22.7692871-22.7588501l-15.2393799-15.2313232l-22.8414307,22.8309937
			c-14.0921631-11.1724243-31.3411865-18.5362549-50.1938477-20.5390015V0h-21.5502319v32.6065063
			c-18.756958,2.1239624-35.9008789,9.5568237-49.894104,20.7625122L45.4888954,30.2376099L30.2504921,45.4689331
			l23.1419678,23.1315918C42.1814613,82.5872803,34.74506,99.7233887,32.620182,118.4719849H0.0000038v21.5392456h32.5432129
			c2.0036011,18.8442383,9.3709106,36.0857544,20.548645,50.171814L30.2504921,213.013916l15.2384033,15.2321777
			l22.768856-22.7583618c14.0610962,11.3737793,31.3433228,18.9210815,50.2674561,21.0641479v31.934082h21.5502319v-31.8571777
			c19.0199585-2.0206299,36.406189-9.5001221,50.5667725-20.840271l22.4685059,22.4584351l15.2393799-15.2330322
			l-22.4686279-22.4581909c11.3449097-14.15448,18.8275757-31.53302,20.848938-50.5444946H258.6019897z M129.4679565,204.9742432
			c-41.7501221,0-75.5979004-33.8314209-75.5979004-75.5645142c0-41.7325439,33.8477745-75.5640259,75.5979004-75.5640259
			c41.7528076,0,75.5993042,33.8314819,75.5993042,75.5640259
			C205.0672607,171.1428223,171.2207642,204.9742432,129.4679565,204.9742432z"/>
	</g>
</g>
</svg>
