<?xml version="1.0" encoding="utf-8"?>
<!-- Generator: Adobe Illustrator 17.0.0, SVG Export Plug-In . SVG Version: 6.00 Build 0)  -->
<!DOCTYPE svg PUBLIC "-//W3C//DTD SVG 1.1//EN" "http://www.w3.org/Graphics/SVG/1.1/DTD/svg11.dtd">
<svg version="1.1" id="Слой_1" xmlns="http://www.w3.org/2000/svg" xmlns:xlink="http://www.w3.org/1999/xlink" x="0px" y="0px"
	 width="198.0124359px" height="165.1191864px" viewBox="0 0 198.0124359 165.1191864"
	 enable-background="new 0 0 198.0124359 165.1191864" xml:space="preserve">
<g id="icon_1_">
	<g>
		<path fill-rule="evenodd" clip-rule="evenodd" fill="#B9B7B7" d="M108.384903,92.6489105
			c11.2296143-8.7061157,18.4605713-22.2810059,18.4605713-37.5447388c0-26.2764893-21.4036865-47.5770874-47.8074341-47.5770874
			c-26.4036865,0-47.8084106,21.3005981-47.8084106,47.5770874c0,15.2453003,7.2139282,28.805603,18.4205322,37.5129395
			c-24.8811646,11.1348877-42.2159424,35.9992065-42.2159424,64.9104004c0,2.5652466,0.1435547,5.0966187,0.4095459,7.5916748
			h142.5957642c0.2722778-2.5199585,0.4191895-5.0762329,0.4158936-7.6671143
			C150.8191071,128.580246,133.3209991,103.7842255,108.384903,92.6489105z M47.0977325,54.9974823
			c0-17.4797363,14.2381592-31.6503296,31.8024902-31.6503296c17.5641479,0,31.8035278,14.1705933,31.8035278,31.6503296
			c0,17.4790649-14.2393799,31.6495972-31.8035278,31.6495972C61.3358917,86.6470795,47.0977325,72.4765472,47.0977325,54.9974823z
			 M23.730545,151.1691132c3.0474243-25.9905396,24.1524048-46.4849243,50.5067139-48.7263184
			c1.5791016,0.1566772,3.1802368,0.2390747,4.8007812,0.2390747c1.6208496,0,3.22229-0.0823364,4.8016968-0.2391357
			c26.3540039,2.2409058,47.4603271,22.7355347,50.5079346,48.7263794H23.730545z M156.1269684,92.7657928
			c11.135437-8.7109985,18.2963867-22.2269287,18.2963867-37.4156494c0-26.2764893-21.4057617-47.5770264-47.8094482-47.5770264
			c-5.3754883,0-10.5376587,0.8959961-15.3602295,2.5239868c5.0667114,3.6141357,9.4923096,8.0551758,13.081604,13.1294556
			c0.7086792-0.046936,1.4212646-0.0794067,2.1418457-0.0794067c17.5640869,0,31.8014526,14.1705933,31.8014526,31.6503296
			c0,17.4471436-14.1859741,31.5956421-31.7058716,31.6472168v7.6252441
			c3.6126099,2.6746826,6.9934692,5.6411133,10.0977173,8.8766479c23.8642578,4.3324585,42.4127808,23.7852783,45.2548828,48.022522
			h-23.828064v13.9500732h39.5056152c0.2659912-2.4950562,0.4095459-5.0264282,0.4095459-7.5916748
			C198.0124054,128.7444916,180.8309479,103.9725189,156.1269684,92.7657928z"/>
	</g>
</g>
</svg>
